<?xml version="1.0" encoding="utf-8"?>
<svg viewBox="141.86 223.256 200 200" xmlns="http://www.w3.org/2000/svg" xmlns:bx="https://boxy-svg.com">
  <path d="M 142.641 223.256 L 339.516 223.256 L 341.079 223.256 L 341.86 223.256 L 341.86 224.15 L 341.86 225.937 L 341.86 420.575 L 341.86 422.362 L 341.86 423.256 L 341.079 423.256 L 339.516 423.256 L 144.203 423.256 L 142.641 423.256 L 141.86 423.256 L 141.86 422.362 L 141.86 420.575 L 141.86 224.15 L 143.422 224.15 L 143.422 420.575 L 143.422 421.469 L 144.203 421.469 L 339.516 421.469 L 340.298 421.469 L 340.298 420.575 L 340.298 225.937 L 340.298 225.043 L 339.516 225.043 L 142.641 225.043 L 142.641 223.256 Z" style="fill: none; stroke: rgb(0, 0, 0); stroke-width: 15px; stroke-miterlimit: 5;"/>
  <path d="M 237.919 256.398 L 284.699 365.164 L 191.139 365.164 L 237.919 256.398 Z" style="stroke: rgb(0, 0, 0); fill: none; stroke-width: 15px;" bx:shape="triangle 191.139 256.398 93.56 108.766 0.5 0 1@72a9fadd"/>
  <ellipse style="stroke: rgb(0, 0, 0); fill: none; stroke-width: 15px;" cx="237.924" cy="320.662" rx="83.184" ry="83.631"/>
</svg>